<svg width="177.000000" height="148.000000" viewBox="0 0 177 148" fill="none" xmlns="http://www.w3.org/2000/svg" xmlns:xlink="http://www.w3.org/1999/xlink">
	<desc>
			Created with Pixso.
	</desc>
	<defs/>
	<line id="Line 7" x1="28.701660" y1="11.773438" x2="171.701660" y2="11.773438" stroke="#E6E9ED" stroke-opacity="1.000000" stroke-width="1.000000" stroke-dasharray="2.000000,2.000000"/>
	<line id="Line 9" x1="28.701660" y1="63.773438" x2="171.701660" y2="63.773438" stroke="#E6E9ED" stroke-opacity="1.000000" stroke-width="1.000000" stroke-dasharray="2.000000,2.000000"/>
	<line id="Line 11" x1="28.701660" y1="118.773438" x2="171.701660" y2="118.773438" stroke="#E6E9ED" stroke-opacity="1.000000" stroke-width="1.000000" stroke-dasharray="2.000000,2.000000"/>
	<path id="Jan" d="M37.49 139.72L37.49 133.48L38.55 133.48L38.55 139.72C38.55 141.39 37.58 142.33 36.06 142.33C34.63 142.33 33.59 141.5 33.59 140.16L34.63 140.16C34.63 140.91 35.23 141.39 36.06 141.39C36.97 141.39 37.49 140.81 37.49 139.72ZM44.4 141.32C44.19 141.75 43.59 142.36 42.45 142.36C41.21 142.36 40.22 141.63 40.22 140.35C40.22 138.85 41.55 138.58 42.76 138.42C43.95 138.27 44.45 138.32 44.45 137.83L44.45 137.79C44.45 136.96 43.99 136.46 43.07 136.46C42.11 136.46 41.58 136.98 41.36 137.45L40.41 137.11C40.92 135.92 42.04 135.58 43.03 135.58C43.87 135.58 45.45 135.82 45.45 137.9L45.45 142.21L44.45 142.21L44.45 141.32L44.4 141.32ZM49.97 136.48C49.01 136.48 48.3 137.13 48.3 138.27L48.3 142.21L47.29 142.21L47.29 135.66L48.27 135.66L48.27 136.69L48.35 136.69C48.66 136.02 49.27 135.58 50.26 135.58C51.58 135.58 52.48 136.38 52.48 138.05L52.48 142.21L51.47 142.21L51.47 138.12C51.47 137.09 50.9 136.48 49.97 136.48ZM41.23 140.4C41.23 141.1 41.81 141.46 42.61 141.46C43.8 141.46 44.45 140.66 44.45 139.84L44.45 138.92C44.28 139.12 43.13 139.24 42.71 139.29C41.92 139.4 41.23 139.63 41.23 140.4Z" fill="#808D9E" fill-opacity="1.000000" fill-rule="evenodd"/>
	<g opacity="0.700000">
		<path id="Jan" d="M4.95 6.61Q4.37 7.59 4.37 9.32Q4.37 11.07 4.95 12.06Q5.12 12.33 5.35 12.53Q5.94 13.04 6.97 13.04Q7.99 13.04 8.59 12.53Q8.82 12.33 8.98 12.06Q9.57 11.07 9.57 9.32Q9.57 7.59 8.98 6.61Q8.82 6.35 8.6 6.15Q8.01 5.64 6.97 5.64Q5.93 5.64 5.34 6.15Q5.11 6.35 4.95 6.61ZM15.65 13.06L13.11 10.31L15.65 7.55L14.07 7.55L12.07 9.96L12.07 5.66L10.93 5.66L10.93 13.06L12.07 13.06L12.07 10.69L14.11 13.06L15.65 13.06ZM0.72 5.77L0.72 6.81L1.65 6.81L1.65 13.06L2.8 13.06L2.8 5.77L0.72 5.77ZM8.35 7.95Q8.45 8.51 8.45 9.32Q8.45 10.16 8.35 10.73Q8.25 11.3 7.93 11.65Q7.89 11.69 7.85 11.72Q7.53 12 6.97 12Q6.41 12 6.09 11.72Q6.05 11.69 6.01 11.65Q5.69 11.3 5.59 10.73Q5.49 10.16 5.49 9.32Q5.49 8.51 5.6 7.95Q5.7 7.39 6.02 7.04Q6.06 6.99 6.11 6.95Q6.42 6.68 6.97 6.68Q7.52 6.68 7.84 6.95Q7.88 6.99 7.92 7.04Q8.24 7.39 8.35 7.95Z" fill="#1D1E25" fill-opacity="1.000000" fill-rule="evenodd"/>
	</g>
	<g opacity="0.700000">
		<path id="Jan" d="M13.89 67.06L11.35 64.31L13.89 61.55L12.31 61.55L10.31 63.96L10.31 59.66L9.17 59.66L9.17 67.06L10.31 67.06L10.31 64.69L12.35 67.06L13.89 67.06ZM3.98 60.75L7.33 60.75L7.33 59.75L2.93 59.75L2.93 63.96L4.01 63.96Q4.12 63.66 4.31 63.45Q4.4 63.37 4.49 63.29Q4.52 63.27 4.56 63.25Q4.88 63.05 5.32 63.05Q5.95 63.05 6.3 63.36Q6.34 63.4 6.38 63.44Q6.38 63.44 6.38 63.44Q6.74 63.82 6.74 64.54Q6.74 65.23 6.4 65.65Q6.39 65.67 6.38 65.68Q6.32 65.76 6.23 65.83Q5.89 66.11 5.32 66.11Q4.76 66.11 4.38 65.85Q4.38 65.84 4.37 65.84Q4.21 65.72 4.09 65.56Q3.94 65.36 3.88 65.09L2.77 65.09Q2.85 65.63 3.12 66.04Q3.3 66.31 3.56 66.52Q3.57 66.53 3.58 66.54Q4.24 67.06 5.31 67.06Q6.13 67.06 6.69 66.73Q7.01 66.54 7.25 66.28Q7.42 66.07 7.55 65.83Q7.83 65.25 7.83 64.51Q7.83 64.1 7.73 63.72Q7.68 63.53 7.6 63.35Q7.54 63.18 7.44 63.03Q7.22 62.69 6.85 62.44Q6.33 62.08 5.49 62.08Q5.19 62.08 4.91 62.16Q4.75 62.2 4.61 62.27Q4.19 62.46 3.98 62.74L3.98 60.75Z" fill="#1D1E25" fill-opacity="1.000000" fill-rule="evenodd"/>
	</g>
	<g opacity="0.700000">
		<path id="Jan" d="M5.97 114.61Q5.39 115.59 5.39 117.32Q5.39 119.07 5.97 120.06Q6.14 120.33 6.37 120.53Q6.96 121.04 7.99 121.04Q9.01 121.04 9.61 120.53Q9.84 120.33 10 120.06Q10.59 119.07 10.59 117.32Q10.59 115.59 10 114.61Q9.84 114.35 9.62 114.15Q9.03 113.64 7.99 113.64Q6.95 113.64 6.36 114.16Q6.13 114.35 5.97 114.61ZM9.37 115.95Q9.47 116.51 9.47 117.32Q9.47 118.16 9.37 118.73Q9.27 119.3 8.95 119.65Q8.91 119.69 8.87 119.72Q8.55 120 7.99 120Q7.43 120 7.11 119.72Q7.07 119.69 7.03 119.65Q6.71 119.3 6.61 118.73Q6.51 118.16 6.51 117.32Q6.51 116.51 6.62 115.95Q6.72 115.39 7.04 115.04Q7.08 114.99 7.13 114.95Q7.44 114.68 7.99 114.68Q8.54 114.68 8.86 114.95Q8.9 114.99 8.94 115.04Q9.26 115.39 9.37 115.95Z" fill="#1D1E25" fill-opacity="1.000000" fill-rule="evenodd"/>
	</g>
	<path id="Mar" d="M146.97 142.21L146.97 133.48L148.23 133.48L151.2 140.73L151.3 140.73L154.27 133.48L155.53 133.48L155.53 142.21L154.54 142.21L154.54 135.58L154.46 135.58L151.73 142.21L150.77 142.21L148.05 135.58L147.96 135.58L147.96 142.21L146.97 142.21ZM165.28 142.21L164.27 142.21L164.27 135.66L165.25 135.66L165.25 136.65L165.31 136.65C165.55 136 166.23 135.56 167.02 135.56C167.17 135.56 167.43 135.57 167.55 135.58L167.55 136.6C167.48 136.58 167.2 136.53 166.93 136.53C165.98 136.53 165.28 137.18 165.28 138.07L165.28 142.21ZM161.38 141.32C161.17 141.75 160.57 142.36 159.43 142.36C158.19 142.36 157.2 141.63 157.2 140.35C157.2 138.85 158.53 138.58 159.74 138.42C160.93 138.27 161.43 138.32 161.43 137.83L161.43 137.79C161.43 136.96 160.97 136.46 160.05 136.46C159.09 136.46 158.56 136.98 158.34 137.45L157.39 137.11C157.9 135.92 159.02 135.58 160.01 135.58C160.85 135.58 162.43 135.82 162.43 137.9L162.43 142.21L161.43 142.21L161.43 141.32L161.38 141.32ZM158.21 140.4C158.21 141.1 158.79 141.46 159.59 141.46C160.78 141.46 161.43 140.66 161.43 139.84L161.43 138.92C161.26 139.12 160.11 139.24 159.69 139.29C158.9 139.4 158.21 139.63 158.21 140.4Z" fill="#808D9E" fill-opacity="1.000000" fill-rule="evenodd"/>
	<path id="Feb" d="M91.86 142.21L90.81 142.21L90.81 133.48L96.04 133.48L96.04 134.42L91.86 134.42L91.86 137.37L95.64 137.37L95.64 138.31L91.86 138.31L91.86 142.21ZM105.33 142.21L104.36 142.21L104.36 133.48L105.36 133.48L105.36 136.7L105.45 136.7C105.67 136.36 106.06 135.58 107.34 135.58C108.99 135.58 110.13 136.89 110.13 138.95C110.13 141.03 108.99 142.35 107.36 142.35C106.09 142.35 105.67 141.56 105.45 141.2L105.33 141.2L105.33 142.21ZM102.58 140.69C102.28 141.68 101.31 142.35 99.98 142.35C98.08 142.35 96.92 141 96.92 138.99C96.92 136.98 98.1 135.58 99.87 135.58C101.24 135.58 102.69 136.41 102.69 138.85L102.69 139.28L97.93 139.28C97.98 140.68 98.79 141.44 99.98 141.44C100.76 141.44 101.36 141.1 101.61 140.42L102.58 140.69ZM99.87 136.48C98.72 136.48 98 137.39 97.93 138.41L101.66 138.41C101.66 137.3 100.96 136.48 99.87 136.48ZM107.22 136.48C105.99 136.48 105.34 137.47 105.34 138.94C105.34 140.42 106.01 141.44 107.22 141.44C108.48 141.44 109.13 140.33 109.13 138.94C109.13 137.56 108.5 136.48 107.22 136.48Z" fill="#808D9E" fill-opacity="1.000000" fill-rule="evenodd"/>
	<rect id="Rectangle 2989" x="38.250000" y="18.064453" rx="6.000000" width="12.000000" height="49.535065" fill="#EB6E46" fill-opacity="1.000000"/>
	<rect id="Rectangle 2989" x="36.750000" y="16.564453" rx="7.500000" width="15.000000" height="52.535065" stroke="#FFFFFF" stroke-opacity="1.000000" stroke-width="3.000000"/>
	<rect id="Rectangle 2988" x="38.250000" y="32.860840" rx="6.000000" width="12.000000" height="49.535065" fill="#20BFF7" fill-opacity="1.000000"/>
	<rect id="Rectangle 2988" x="36.750000" y="31.360840" rx="7.500000" width="15.000000" height="52.535065" stroke="#FFFFFF" stroke-opacity="1.000000" stroke-width="3.000000"/>
	<rect id="Rectangle 2981" x="38.250000" y="70.172852" rx="6.000000" width="12.000000" height="49.535065" fill="#2280FF" fill-opacity="1.000000"/>
	<rect id="Rectangle 2981" x="36.750000" y="68.672852" rx="7.500000" width="15.000000" height="52.535065" stroke="#FFFFFF" stroke-opacity="1.000000" stroke-width="3.000000"/>
	<rect id="Rectangle 2989" x="94.250000" y="52.160156" rx="6.000000" width="12.000000" height="32.291847" fill="#EB6E46" fill-opacity="1.000000"/>
	<rect id="Rectangle 2989" x="92.750000" y="50.660156" rx="7.500000" width="15.000000" height="35.291847" stroke="#FFFFFF" stroke-opacity="1.000000" stroke-width="3.000000"/>
	<rect id="Rectangle 2988" x="94.250000" y="76.606201" rx="6.000000" width="12.000000" height="32.291847" fill="#20BFF7" fill-opacity="1.000000"/>
	<rect id="Rectangle 2988" x="92.750000" y="75.106201" rx="7.500000" width="15.000000" height="35.291847" stroke="#FFFFFF" stroke-opacity="1.000000" stroke-width="3.000000"/>
	<rect id="Rectangle 2981" x="94.250000" y="102.338623" rx="6.000000" width="12.000000" height="17.369440" fill="#2280FF" fill-opacity="1.000000"/>
	<rect id="Rectangle 2981" x="92.750000" y="100.838623" rx="7.500000" width="15.000000" height="20.369440" stroke="#FFFFFF" stroke-opacity="1.000000" stroke-width="3.000000"/>
	<rect id="Rectangle 2989" x="150.250000" y="56.663330" rx="6.000000" width="12.000000" height="30.724342" fill="#EB6E46" fill-opacity="1.000000"/>
	<rect id="Rectangle 2989" x="148.750000" y="55.163330" rx="7.500000" width="15.000000" height="33.724342" stroke="#FFFFFF" stroke-opacity="1.000000" stroke-width="3.000000"/>
	<rect id="Rectangle 2988" x="150.250000" y="65.841309" rx="6.000000" width="12.000000" height="30.724342" fill="#20BFF7" fill-opacity="1.000000"/>
	<rect id="Rectangle 2988" x="148.750000" y="64.341309" rx="7.500000" width="15.000000" height="33.724342" stroke="#FFFFFF" stroke-opacity="1.000000" stroke-width="3.000000"/>
	<rect id="Rectangle 2981" x="150.250000" y="88.984619" rx="6.000000" width="12.000000" height="30.724342" fill="#2280FF" fill-opacity="1.000000"/>
	<rect id="Rectangle 2981" x="148.750000" y="87.484619" rx="7.500000" width="15.000000" height="33.724342" stroke="#FFFFFF" stroke-opacity="1.000000" stroke-width="3.000000"/>
</svg>
