<svg width="17.000000" height="18.000000" viewBox="0 0 17 18" fill="none" xmlns="http://www.w3.org/2000/svg" xmlns:xlink="http://www.w3.org/1999/xlink">
	<desc>
			Created with Pixso.
	</desc>
	<defs/>
	<rect width="17.487436" height="17.487436" transform="translate(-0.974854 -0.256348)" fill="#FFFFFF" fill-opacity="0"/>
	<path d="M2.66 7.03C1.86 7.03 1.21 7.68 1.21 8.48C1.21 9.28 1.86 9.94 2.66 9.94C3.46 9.94 4.12 9.28 4.12 8.48C4.12 7.68 3.46 7.03 2.66 7.03Z" fill="#7E8492" fill-opacity="1.000000" fill-rule="nonzero"/>
	<path d="M12.86 7.03C12.06 7.03 11.41 7.68 11.41 8.48C11.41 9.28 12.06 9.94 12.86 9.94C13.67 9.94 14.32 9.28 14.32 8.48C14.32 7.68 13.67 7.03 12.86 7.03Z" fill="#7E8492" fill-opacity="1.000000" fill-rule="nonzero"/>
	<path d="M7.76 7.03C6.96 7.03 6.31 7.68 6.31 8.48C6.31 9.28 6.96 9.94 7.76 9.94C8.57 9.94 9.22 9.28 9.22 8.48C9.22 7.68 8.57 7.03 7.76 7.03Z" fill="#7E8492" fill-opacity="1.000000" fill-rule="nonzero"/>
	<g opacity="0.000000">
		<path d="M-0.98 -0.26L16.51 -0.26L16.51 17.23L-0.98 17.23L-0.98 -0.26Z" fill="#7E8492" fill-opacity="1.000000" fill-rule="evenodd"/>
	</g>
</svg>
