<svg width="366.000000" height="260.000000" viewBox="0 0 366 260" fill="none" xmlns="http://www.w3.org/2000/svg" xmlns:xlink="http://www.w3.org/1999/xlink">
	<desc>
			Created with Pixso.
	</desc>
	<defs>
		<clipPath id="clip1_2557">
			<rect width="30.500000" height="206.000000" transform="translate(430.832764 53.997559) rotate(0.015818)" fill="white" fill-opacity="0"/>
		</clipPath>
		<clipPath id="clip1_2560">
			<rect width="30.500000" height="206.000000" transform="translate(375.932617 53.982422) rotate(0.015818)" fill="white" fill-opacity="0"/>
		</clipPath>
		<clipPath id="clip1_2563">
			<rect width="26.840000" height="206.000000" transform="translate(324.692627 53.968262) rotate(0.015818)" fill="white" fill-opacity="0"/>
		</clipPath>
		<clipPath id="clip1_2566">
			<rect width="29.280001" height="206.000000" transform="translate(271.012695 53.953369) rotate(0.015818)" fill="white" fill-opacity="0"/>
		</clipPath>
		<clipPath id="clip1_2569">
			<rect width="30.500000" height="206.000000" transform="translate(216.112549 53.938232) rotate(0.015818)" fill="white" fill-opacity="0"/>
		</clipPath>
		<clipPath id="clip1_2572">
			<rect width="48.799999" height="206.000000" transform="translate(155.112549 53.921387) rotate(0.015818)" fill="white" fill-opacity="0"/>
		</clipPath>
		<clipPath id="clip1_2576">
			<rect width="29.280001" height="206.000000" transform="translate(113.632568 53.910156) rotate(0.015818)" fill="white" fill-opacity="0"/>
		</clipPath>
		<clipPath id="clip1_2579">
			<rect width="32.939999" height="206.000000" transform="translate(56.292480 53.894287) rotate(0.015818)" fill="white" fill-opacity="0"/>
		</clipPath>
		<clipPath id="clip1_2582">
			<rect width="28.059999" height="206.000000" transform="translate(3.832764 53.879639) rotate(0.015818)" fill="white" fill-opacity="0"/>
		</clipPath>
		<clipPath id="clip1_2585">
			<rect width="30.500000" height="206.000000" transform="translate(-51.067383 53.864502) rotate(0.015818)" fill="white" fill-opacity="0"/>
		</clipPath>
		<clipPath id="clip1_2588">
			<rect width="29.280001" height="206.000000" transform="translate(-104.747559 53.849609) rotate(0.015818)" fill="white" fill-opacity="0"/>
		</clipPath>
		<clipPath id="clip1_2591">
			<rect width="29.280001" height="206.000000" transform="translate(-158.427490 53.834961) rotate(0.015818)" fill="white" fill-opacity="0"/>
		</clipPath>
		<filter id="filter_1_2595_dd" x="165.052979" y="31.933594" width="116.007080" height="82.013184" filterUnits="userSpaceOnUse" color-interpolation-filters="sRGB">
			<feFlood flood-opacity="0" result="BackgroundImageFix"/>
			<feColorMatrix in="SourceAlpha" type="matrix" values="0 0 0 0 0 0 0 0 0 0 0 0 0 0 0 0 0 0 127 0" result="hardAlpha"/>
			<feOffset dx="0" dy="4"/>
			<feGaussianBlur stdDeviation="7.33333"/>
			<feComposite in2="hardAlpha" operator="out" k2="-1" k3="1"/>
			<feColorMatrix type="matrix" values="0 0 0 0 0.62353 0 0 0 0 0.63922 0 0 0 0 0.72157 0 0 0 0.25 0"/>
			<feBlend mode="normal" in2="BackgroundImageFix" result="effect_dropShadow_1"/>
			<feBlend mode="normal" in="SourceGraphic" in2="effect_dropShadow_1" result="shape"/>
		</filter>
		<clipPath id="clip1_2603">
			<rect width="17.080000" height="24.000000" transform="translate(9.933105 51.881348) rotate(0.015818)" fill="white" fill-opacity="0"/>
		</clipPath>
		<clipPath id="clip1_2605">
			<rect width="10.980000" height="24.000000" transform="translate(17.206055 221.883301) rotate(0.015818)" fill="white" fill-opacity="0"/>
		</clipPath>
		<clipPath id="clip1_2607">
			<rect width="29.280001" height="24.000000" transform="translate(-1.084473 187.878418) rotate(0.015818)" fill="white" fill-opacity="0"/>
		</clipPath>
		<clipPath id="clip1_2609">
			<rect width="29.280001" height="24.000000" transform="translate(-1.074951 153.878418) rotate(0.015818)" fill="white" fill-opacity="0"/>
		</clipPath>
		<clipPath id="clip1_2611">
			<rect width="29.280001" height="24.000000" transform="translate(-1.065674 119.878418) rotate(0.015818)" fill="white" fill-opacity="0"/>
		</clipPath>
		<clipPath id="clip1_2613">
			<rect width="29.280001" height="24.000000" transform="translate(-1.056152 85.878418) rotate(0.015818)" fill="white" fill-opacity="0"/>
		</clipPath>
		<filter id="filter_1_2616_dd" x="167.052246" y="81.927734" width="22.000000" height="22.000000" filterUnits="userSpaceOnUse" color-interpolation-filters="sRGB">
			<feFlood flood-opacity="0" result="BackgroundImageFix"/>
			<feColorMatrix in="SourceAlpha" type="matrix" values="0 0 0 0 0 0 0 0 0 0 0 0 0 0 0 0 0 0 127 0" result="hardAlpha"/>
			<feOffset dx="0" dy="2"/>
			<feGaussianBlur stdDeviation="1.33333"/>
			<feComposite in2="hardAlpha" operator="out" k2="-1" k3="1"/>
			<feColorMatrix type="matrix" values="0 0 0 0 0.26667 0 0 0 0 0.26667 0 0 0 0 0.3098 0 0 0 0.15 0"/>
			<feBlend mode="normal" in2="BackgroundImageFix" result="effect_dropShadow_1"/>
			<feBlend mode="normal" in="SourceGraphic" in2="effect_dropShadow_1" result="shape"/>
		</filter>
		<clipPath id="clip1_2553">
			<rect width="366.000000" height="260.000000" transform="translate(-0.422607 -0.121582) rotate(0.015818)" fill="white" fill-opacity="0"/>
		</clipPath>
		<linearGradient x1="179.512527" y1="53.928123" x2="179.462006" y2="236.928116" id="paint_linear_1_2575_0" gradientUnits="userSpaceOnUse">
			<stop stop-color="#2A85FF"/>
			<stop offset="1.000000" stop-color="#2A85FF" stop-opacity="0.000000"/>
		</linearGradient>
	</defs>
	<rect width="366.000000" height="260.000000" transform="translate(-0.422607 -0.121582) rotate(0.015818)" fill="#FFFFFF" fill-opacity="0"/>
	<g clip-path="url(#clip1_2553)">
		<mask id="mask1_2555" mask-type="alpha" maskUnits="userSpaceOnUse" x="-1.106445" y="7.878418" width="367.291748" height="260.101318">
			<rect x="-1.034668" y="7.878418" width="367.220001" height="260.000000" transform="rotate(0.0158183 -1.034668 7.878418)" fill="#FFFFFF" fill-opacity="1.000000"/>
			<rect x="-1.034668" y="7.878418" width="367.220001" height="260.000000" transform="rotate(0.0158183 -1.034668 7.878418)" stroke="#979797" stroke-opacity="0" stroke-width="0.000000"/>
		</mask>
		<g mask="url(#mask1_2555)">
			<rect width="30.500000" height="206.000000" transform="translate(430.832764 53.997559) rotate(0.015818)" fill="#FFFFFF" fill-opacity="0"/>
			<g clip-path="url(#clip1_2557)">
				<path d="M436.32 232.72L436.32 241.25L438.68 241.25Q439.83 241.24 440.69 240.75Q441.05 240.55 441.34 240.28Q441.75 239.89 442.02 239.36Q442.49 238.45 442.49 237.24L442.49 236.7Q442.48 235.52 442.02 234.61Q441.74 234.06 441.31 233.67Q441.04 233.41 440.7 233.21Q440.64 233.18 440.58 233.15Q439.76 232.72 438.73 232.72L436.32 232.72ZM437.44 240.33L437.44 233.65L438.76 233.65Q439.68 233.65 440.3 234.1Q440.52 234.25 440.69 234.46Q441.38 235.27 441.38 236.72L441.38 237.22Q441.37 238.71 440.65 239.52Q440.48 239.72 440.27 239.86Q439.62 240.33 438.63 240.33L437.44 240.33ZM445.25 241.01Q445.89 241.37 446.73 241.37Q447.68 241.37 448.35 240.94Q448.8 240.64 449.12 240.15L448.46 239.63Q448.2 239.97 447.86 240.19Q447.81 240.22 447.76 240.25Q447.37 240.49 446.79 240.49Q446.34 240.49 445.98 240.31Q445.69 240.17 445.46 239.91Q445.38 239.83 445.32 239.74Q444.93 239.2 444.91 238.39L449.21 238.39L449.21 237.94Q449.21 236.43 448.52 235.61Q448.32 235.37 448.07 235.2Q447.47 234.8 446.6 234.8Q446.27 234.8 445.96 234.88Q445.56 234.98 445.2 235.21Q445.02 235.33 444.86 235.47Q444.45 235.84 444.19 236.37Q443.83 237.12 443.83 238.06L443.83 238.26Q443.83 239.43 444.38 240.21Q444.5 240.38 444.64 240.52Q444.92 240.82 445.25 241.01ZM453.72 240.37Q453.43 240.49 453.09 240.49Q452.55 240.49 452.16 240.24Q451.96 240.1 451.8 239.9Q451.35 239.3 451.35 238.21L451.35 238Q451.35 236.88 451.8 236.28Q451.97 236.06 452.2 235.92Q452.57 235.69 453.08 235.69Q453.47 235.69 453.77 235.84Q453.96 235.93 454.12 236.08Q454.27 236.23 454.38 236.41Q454.55 236.71 454.58 237.1L455.61 237.1Q455.58 236.47 455.3 235.98Q455.13 235.68 454.86 235.44Q454.66 235.26 454.42 235.12Q453.85 234.8 453.08 234.8Q452.26 234.8 451.65 235.15Q451.62 235.17 451.58 235.2Q451.38 235.32 451.21 235.48Q450.84 235.82 450.61 236.32Q450.27 237.04 450.27 237.96L450.27 238.14Q450.26 239.59 450.98 240.45Q451 240.48 451.03 240.51Q451.28 240.79 451.6 240.99Q452.22 241.37 453.09 241.37Q453.4 241.37 453.69 241.3Q454.01 241.23 454.31 241.08Q454.78 240.84 455.09 240.48Q455.17 240.39 455.23 240.29Q455.51 239.9 455.59 239.46Q455.6 239.36 455.61 239.26L454.58 239.26Q454.56 239.48 454.48 239.66Q454.36 239.93 454.1 240.14Q453.92 240.28 453.72 240.37ZM445.99 235.81Q446.27 235.69 446.6 235.69Q447.06 235.69 447.38 235.89Q447.55 235.99 447.68 236.14Q448.08 236.6 448.12 237.42L448.12 237.5L444.95 237.5Q445.05 236.64 445.5 236.16Q445.72 235.93 445.99 235.81Z" fill="#92929D" fill-opacity="1.000000" fill-rule="evenodd"/>
				<path d="M444.2 237L444.25 54L445.47 54L445.42 237L444.2 237Z" fill="#F1F1F5" fill-opacity="1.000000" fill-rule="evenodd"/>
				<path d="M444.25 54L445.47 54L445.42 237L444.2 237L444.25 54Z" stroke="#979797" stroke-opacity="0" stroke-width="0.000000"/>
			</g>
			<rect width="30.500000" height="206.000000" transform="translate(375.932617 53.982422) rotate(0.015818)" fill="#FFFFFF" fill-opacity="0"/>
			<g clip-path="url(#clip1_2560)">
				<path d="M386.54 241.24L387.67 241.24L387.67 232.71L386.55 232.71L386.55 239.31L382.24 232.7L381.11 232.7L381.11 241.24L382.24 241.24L382.24 234.66L386.54 241.24ZM389.66 236.33Q389.29 237.08 389.29 238.01L389.29 238.09Q389.29 239.38 389.91 240.23Q389.99 240.35 390.09 240.46Q390.41 240.81 390.8 241.03Q391.4 241.36 392.18 241.36Q392.88 241.36 393.44 241.09Q393.57 241.02 393.7 240.95Q393.92 240.81 394.11 240.63Q394.48 240.29 394.71 239.8Q395.06 239.07 395.07 238.14L395.07 238.06Q395.07 236.74 394.43 235.88Q394.35 235.78 394.27 235.68Q393.96 235.33 393.57 235.12Q392.96 234.78 392.17 234.78Q391.52 234.78 390.97 235.03Q390.82 235.1 390.68 235.19Q390.51 235.29 390.37 235.41Q389.93 235.78 389.66 236.33ZM400.09 234.9L398.51 239.77L396.9 234.9L395.8 234.9L398.09 241.24L398.92 241.24L401.19 234.9L400.09 234.9ZM390.87 239.83Q390.38 239.19 390.38 238.14Q390.38 236.95 390.88 236.31Q391.13 235.99 391.45 235.83Q391.77 235.67 392.17 235.67Q392.59 235.67 392.92 235.84Q393.24 236 393.49 236.32Q393.98 236.97 393.98 238.01Q393.98 239.18 393.49 239.82Q393.26 240.13 392.96 240.29Q392.62 240.47 392.18 240.47Q391.75 240.47 391.41 240.29Q391.1 240.14 390.87 239.83Z" fill="#92929D" fill-opacity="1.000000" fill-rule="evenodd"/>
				<path d="M389.3 236.98L389.35 53.98L390.57 53.98L390.52 236.98L389.3 236.98Z" fill="#F1F1F5" fill-opacity="1.000000" fill-rule="evenodd"/>
				<path d="M389.35 53.98L390.57 53.98L390.52 236.98L389.3 236.98L389.35 53.98Z" stroke="#979797" stroke-opacity="0" stroke-width="0.000000"/>
			</g>
			<rect width="26.840000" height="206.000000" transform="translate(324.692627 53.968262) rotate(0.015818)" fill="#FFFFFF" fill-opacity="0"/>
			<g clip-path="url(#clip1_2563)">
				<path d="M331.99 245.12C334.23 245.12 335.85 246.84 335.84 249.6C335.84 252.36 334.22 254.09 331.99 254.09C329.76 254.09 328.14 252.36 328.14 249.6C328.14 246.84 329.76 245.12 331.99 245.12ZM345.63 247.42L347.03 247.43L347.03 248.28L345.63 248.28L345.63 252.09C345.63 252.95 346.05 253.08 346.5 253.08C346.72 253.08 346.86 253.05 346.94 253.03L347.15 253.93C347.01 253.99 346.77 254.06 346.4 254.05C345.54 254.05 344.62 253.51 344.62 252.37L344.62 248.28L343.64 248.28L343.64 247.42L344.62 247.42L344.62 245.86L345.63 245.86L345.63 247.42ZM331.99 253.1C333.58 253.1 334.82 251.87 334.82 249.6C334.82 247.34 333.58 246.11 331.99 246.11C330.41 246.11 329.16 247.34 329.16 249.6C329.16 251.87 330.41 253.1 331.99 253.1ZM342.71 252.06C342.54 253.22 341.59 254.11 340.14 254.11C338.3 254.11 337.17 252.69 337.17 250.73C337.17 248.73 338.35 247.34 340.12 247.34C341.5 247.34 342.54 248.16 342.71 249.38L341.71 249.38C341.56 248.79 341.03 248.24 340.14 248.24C338.96 248.24 338.18 249.21 338.18 250.7C338.18 252.21 338.95 253.2 340.14 253.2C340.92 253.2 341.52 252.78 341.71 252.06L342.71 252.06Z" fill="#808D9E" fill-opacity="1.000000" fill-rule="evenodd"/>
				<path d="M336.84 236.97L336.89 53.97L338.11 53.97L338.06 236.97L336.84 236.97Z" fill="#E9ECF2" fill-opacity="1.000000" fill-rule="evenodd"/>
			</g>
			<rect width="29.280001" height="206.000000" transform="translate(271.012695 53.953369) rotate(0.015818)" fill="#FFFFFF" fill-opacity="0"/>
			<g clip-path="url(#clip1_2566)">
				<path d="M281.22 247.41L280.2 247.41C280.1 246.55 279.29 246.04 278.24 246.04C277.08 246.04 276.31 246.66 276.31 247.49C276.31 248.43 277.35 248.77 278 248.94L278.88 249.18C279.79 249.42 281.34 249.95 281.34 251.58C281.34 253 280.2 254.1 278.18 254.1C276.31 254.1 275.15 253.13 275.05 251.7L276.14 251.7C276.22 252.69 277.14 253.15 278.18 253.15C279.39 253.15 280.32 252.52 280.32 251.56C280.32 250.7 279.5 250.37 278.58 250.12L277.5 249.81C276.14 249.42 275.29 248.72 275.29 247.54C275.29 246.07 276.6 245.1 278.27 245.1C279.96 245.1 281.17 246.09 281.22 247.41ZM288.29 252.44C287.98 253.43 287.01 254.09 285.68 254.09C283.79 254.09 282.63 252.74 282.63 250.73C282.63 248.72 283.81 247.32 285.58 247.32C286.95 247.32 288.4 248.16 288.39 250.6L288.39 251.02L283.64 251.02C283.69 252.42 284.5 253.18 285.68 253.19C286.47 253.19 287.06 252.85 287.32 252.16L288.29 252.44ZM290.93 256.41L289.93 256.41L289.93 247.41L290.9 247.41L290.9 248.45L291.02 248.45C291.24 248.11 291.63 247.32 292.91 247.32C294.57 247.33 295.71 248.64 295.71 250.7C295.71 252.78 294.57 254.09 292.93 254.09C291.67 254.09 291.24 253.31 291.02 252.95L290.93 252.95L290.93 256.41ZM285.58 248.23C284.43 248.22 283.71 249.13 283.64 250.15L287.37 250.15C287.37 249.04 286.67 248.23 285.58 248.23ZM292.79 248.23C291.57 248.23 290.92 249.22 290.92 250.68C290.92 252.16 291.58 253.19 292.79 253.19C294.05 253.19 294.7 252.08 294.7 250.68C294.7 249.3 294.07 248.23 292.79 248.23Z" fill="#808D9E" fill-opacity="1.000000" fill-rule="evenodd"/>
				<path d="M284.38 236.95L284.43 53.95L285.65 53.95L285.6 236.95L284.38 236.95Z" fill="#E9ECF2" fill-opacity="1.000000" fill-rule="evenodd"/>
			</g>
			<rect width="30.500000" height="206.000000" transform="translate(216.112549 53.938232) rotate(0.015818)" fill="#FFFFFF" fill-opacity="0"/>
			<g clip-path="url(#clip1_2569)">
				<path d="M222.04 251.46L221.16 253.94L220.05 253.93L223.26 245.21L224.35 245.21L227.55 253.94L226.44 253.94L225.57 251.46L222.04 251.46ZM223.77 246.59L222.37 250.53L225.23 250.53L223.84 246.59L223.77 246.59ZM241.22 254.13C241.22 255.82 239.96 256.53 238.39 256.53C236.93 256.53 236.12 255.91 235.72 255.22L236.52 254.65C236.79 255.02 237.2 255.64 238.39 255.64C239.45 255.65 240.22 255.15 240.22 254.06L240.22 252.73L240.13 252.73C239.91 253.09 239.5 253.84 238.22 253.84C236.64 253.84 235.44 252.68 235.44 250.63C235.44 248.62 236.59 247.31 238.24 247.31C239.52 247.31 239.93 248.09 240.15 248.44L240.25 248.44L240.25 247.4L241.22 247.4L241.22 254.13ZM231.22 253.05C231.97 253.05 232.9 252.49 232.9 251.26L232.9 247.39L233.91 247.39L233.91 253.94L232.9 253.94L232.9 252.83L232.84 252.83C232.53 253.5 231.88 254.02 230.89 254.02C229.67 254.02 228.78 253.22 228.78 251.55L228.78 247.39L229.78 247.39L229.78 251.48C229.78 252.44 230.38 253.05 231.22 253.05ZM236.45 250.61C236.45 251.98 237.1 252.93 238.36 252.93C239.57 252.94 240.23 252.07 240.23 250.62C240.23 249.2 239.59 248.21 238.36 248.21C237.08 248.21 236.45 249.29 236.45 250.61Z" fill="#808D9E" fill-opacity="1.000000" fill-rule="evenodd"/>
				<path d="M229.48 236.94L229.53 53.94L230.75 53.94L230.7 236.94L229.48 236.94Z" fill="#E9ECF2" fill-opacity="1.000000" fill-rule="evenodd"/>
			</g>
			<rect width="48.799999" height="206.000000" transform="translate(155.112549 53.921387) rotate(0.015818)" fill="#FFFFFF" fill-opacity="0"/>
			<g clip-path="url(#clip1_2572)">
				<path d="M174.57 251.44L174.57 245.19L175.63 245.2L175.62 251.44C175.62 253.11 174.65 254.04 173.13 254.04C171.7 254.04 170.66 253.22 170.66 251.88L171.7 251.88C171.7 252.62 172.3 253.1 173.13 253.1C174.05 253.1 174.57 252.52 174.57 251.44ZM184.57 245.2L185.58 245.2L185.58 253.93L184.57 253.93L184.57 245.2ZM180.04 253.04C180.79 253.04 181.72 252.47 181.73 251.25L181.73 247.38L182.73 247.38L182.73 253.92L181.72 253.92L181.72 252.82L181.66 252.82C181.35 253.48 180.7 254.01 179.71 254.01C178.49 254.01 177.6 253.21 177.6 251.54L177.6 247.38L178.61 247.38L178.6 251.47C178.6 252.42 179.2 253.04 180.04 253.04Z" fill="#808D9E" fill-opacity="1.000000" fill-rule="evenodd"/>
				<path d="M177.02 236.92L177.07 53.92L179.51 53.92L179.46 236.92L177.02 236.92Z" fill="#E9ECF2" fill-opacity="1.000000" fill-rule="evenodd"/>
				<g opacity="0.100000">
					<path d="M155.06 236.92L155.11 53.92L203.91 53.93L203.86 236.93L155.06 236.92Z" fill="url(#paint_linear_1_2575_0)" fill-opacity="1.000000" fill-rule="evenodd"/>
				</g>
			</g>
			<rect width="29.280001" height="206.000000" transform="translate(113.632568 53.910156) rotate(0.015818)" fill="#FFFFFF" fill-opacity="0"/>
			<g clip-path="url(#clip1_2576)">
				<path d="M122.11 251.42L122.11 245.18L123.17 245.18L123.17 251.42C123.17 253.09 122.19 254.03 120.67 254.03C119.25 254.03 118.21 253.2 118.21 251.86L119.25 251.86C119.25 252.6 119.85 253.09 120.68 253.09C121.59 253.09 122.11 252.5 122.11 251.42ZM134.79 248.18C133.83 248.18 133.12 248.83 133.12 249.97L133.12 253.91L132.11 253.91L132.11 247.37L133.09 247.37L133.09 248.39L133.17 248.39C133.48 247.72 134.09 247.28 135.08 247.28C136.41 247.28 137.3 248.08 137.3 249.75L137.3 253.91L136.29 253.91L136.29 249.82C136.29 248.79 135.72 248.18 134.79 248.18ZM127.58 253.02C128.33 253.02 129.27 252.46 129.27 251.24L129.27 247.36L130.27 247.37L130.27 253.91L129.27 253.91L129.27 252.8L129.2 252.8C128.89 253.47 128.24 253.99 127.26 253.99C126.03 253.99 125.14 253.19 125.14 251.52L125.14 247.36L126.15 247.36L126.15 251.45C126.15 252.41 126.74 253.02 127.58 253.02Z" fill="#808D9E" fill-opacity="1.000000" fill-rule="evenodd"/>
				<path d="M129.44 236.91L129.49 53.91L130.71 53.91L130.66 236.91L129.44 236.91Z" fill="#E9ECF2" fill-opacity="1.000000" fill-rule="evenodd"/>
			</g>
			<rect width="32.939999" height="206.000000" transform="translate(56.292480 53.894287) rotate(0.015818)" fill="#FFFFFF" fill-opacity="0"/>
			<g clip-path="url(#clip1_2579)">
				<path d="M61.24 253.89L61.24 245.16L62.5 245.16L65.47 252.41L65.57 252.41L68.54 245.17L69.8 245.17L69.79 253.89L68.81 253.89L68.81 247.26L68.72 247.26L65.99 253.89L65.04 253.89L62.31 247.26L62.23 247.26L62.23 253.89L61.24 253.89ZM75.64 253.01C75.44 253.44 74.84 254.05 73.7 254.05C72.45 254.05 71.46 253.31 71.47 252.04C71.47 250.54 72.79 250.27 74.01 250.11C75.2 249.96 75.69 250 75.69 249.52L75.69 249.48C75.69 248.64 75.24 248.15 74.31 248.15C73.36 248.15 72.83 248.66 72.61 249.14L71.65 248.8C72.17 247.6 73.29 247.26 74.28 247.26C75.12 247.27 76.7 247.5 76.7 249.58L76.7 253.9L75.69 253.9L75.69 253.01L75.64 253.01ZM80.88 254.85C80.49 255.87 79.86 256.35 78.95 256.35C78.61 256.35 78.32 256.28 78.22 256.23L78.47 255.35C79.21 255.53 79.66 255.44 80.02 254.44L80.21 253.93L77.79 247.35L78.88 247.35L80.69 252.57L80.76 252.57L82.57 247.35L83.66 247.35L80.88 254.85ZM72.47 252.09C72.47 252.79 73.05 253.14 73.85 253.14C75.05 253.14 75.69 252.35 75.69 251.52L75.69 250.61C75.52 250.81 74.38 250.93 73.96 250.98C73.17 251.08 72.47 251.32 72.47 252.09Z" fill="#808D9E" fill-opacity="1.000000" fill-rule="evenodd"/>
				<path d="M73.33 236.89L73.38 53.89L74.57 53.89L74.52 236.89L73.33 236.89Z" fill="#E9ECF2" fill-opacity="1.000000" fill-rule="evenodd"/>
			</g>
			<rect width="28.059999" height="206.000000" transform="translate(3.832764 53.879639) rotate(0.015818)" fill="#FFFFFF" fill-opacity="0"/>
			<g clip-path="url(#clip1_2582)">
				<path d="M9.59 241.13L10.4 238.91L13.97 238.91L14.79 241.13L15.94 241.13L12.68 232.6L11.69 232.6L8.43 241.13L9.59 241.13ZM13.64 237.98L10.74 237.98L12.19 233.99L13.64 237.98ZM21.7 240.37Q22.36 239.48 22.36 238.04L22.36 237.94Q22.36 236.4 21.7 235.54Q21.41 235.16 21.02 234.95Q20.53 234.68 19.89 234.68Q19.13 234.68 18.58 235.02Q18.28 235.21 18.05 235.5L18 234.79L17.01 234.79L17 243.57L18.09 243.57L18.09 240.52Q18.27 240.72 18.48 240.86Q19.06 241.25 19.9 241.25Q20.5 241.25 20.97 241.01Q21.39 240.79 21.7 240.37ZM26.35 235.73Q26.64 235.73 26.89 235.77L26.89 234.76Q26.72 234.68 26.41 234.68Q25.94 234.68 25.58 234.87Q25.18 235.08 24.9 235.53L24.88 234.8L23.82 234.8L23.82 241.14L24.91 241.14L24.91 236.64Q25.07 236.24 25.37 236.02Q25.75 235.73 26.35 235.73ZM20.82 236.22Q21.28 236.84 21.28 237.91Q21.28 239.13 20.82 239.75Q20.59 240.05 20.29 240.2Q19.98 240.37 19.58 240.37Q19.07 240.37 18.69 240.14Q18.33 239.93 18.09 239.5L18.09 236.47Q18.34 236.02 18.73 235.8Q19.09 235.6 19.57 235.6Q20 235.6 20.33 235.78Q20.61 235.93 20.82 236.22Z" fill="#92929D" fill-opacity="1.000000" fill-rule="evenodd"/>
				<path d="M18.43 236.88L18.48 53.88L19.67 53.88L19.62 236.88L18.43 236.88Z" fill="#F1F1F5" fill-opacity="1.000000" fill-rule="evenodd"/>
				<path d="M18.48 53.88L19.67 53.88L19.62 236.88L18.43 236.88L18.48 53.88Z" stroke="#979797" stroke-opacity="0" stroke-width="0.000000"/>
			</g>
			<rect width="30.500000" height="206.000000" transform="translate(-51.067383 53.864502) rotate(0.015818)" fill="#FFFFFF" fill-opacity="0"/>
			<g clip-path="url(#clip1_2585)">
				<path d="M-41.62 239.55L-44.41 232.59L-45.86 232.59L-45.86 241.12L-44.74 241.12L-44.74 237.8L-44.85 234.23L-42.05 241.12L-41.19 241.12L-38.39 234.21L-38.5 237.8L-38.5 241.12L-37.37 241.12L-37.37 232.59L-38.83 232.59L-41.62 239.55ZM-31.71 240.45Q-31.65 240.93 -31.56 241.12L-30.42 241.12L-30.42 241.03Q-30.64 240.51 -30.64 239.64L-30.64 236.72Q-30.66 236.02 -30.99 235.54Q-31.11 235.36 -31.28 235.21Q-31.29 235.21 -31.3 235.2Q-31.92 234.66 -33 234.66Q-33.69 234.66 -34.26 234.92Q-34.27 234.92 -34.27 234.92Q-34.84 235.18 -35.18 235.61Q-35.18 235.62 -35.18 235.62Q-35.48 236 -35.51 236.41Q-35.52 236.47 -35.52 236.54L-34.43 236.54Q-34.43 236.41 -34.4 236.3Q-34.31 236.03 -34.04 235.83Q-34 235.8 -33.96 235.77Q-33.59 235.54 -33.07 235.54Q-32.42 235.54 -32.08 235.86Q-32.07 235.87 -32.06 235.87Q-31.99 235.95 -31.93 236.03Q-31.72 236.34 -31.72 236.78L-31.72 237.28L-32.78 237.28Q-34.14 237.28 -34.9 237.82Q-35.22 238.06 -35.4 238.37Q-35.65 238.79 -35.65 239.36Q-35.65 239.79 -35.49 240.14Q-35.34 240.45 -35.05 240.71Q-34.93 240.81 -34.8 240.9Q-34.26 241.24 -33.51 241.24Q-33.05 241.24 -32.65 241.09Q-32.13 240.89 -31.71 240.45ZM-26.32 235.71Q-26.04 235.71 -25.79 235.76L-25.79 234.75Q-25.95 234.67 -26.27 234.67Q-26.73 234.67 -27.1 234.86Q-27.5 235.07 -27.78 235.51L-27.8 234.78L-28.85 234.78L-28.86 241.12L-27.77 241.12L-27.77 236.62Q-27.61 236.23 -27.31 236Q-26.93 235.71 -26.32 235.71ZM-32.98 240.26Q-33.16 240.29 -33.35 240.29Q-33.81 240.29 -34.13 240.08Q-34.18 240.05 -34.23 240.01Q-34.33 239.92 -34.41 239.81Q-34.57 239.56 -34.57 239.21Q-34.57 238.91 -34.44 238.69Q-34.06 238.04 -32.57 238.04L-31.72 238.04L-31.72 239.35Q-31.76 239.42 -31.8 239.48Q-32.01 239.81 -32.39 240.03Q-32.67 240.2 -32.98 240.26Z" fill="#92929D" fill-opacity="1.000000" fill-rule="evenodd"/>
				<path d="M-36.47 236.86L-36.42 53.86L-35.23 53.86L-35.28 236.86L-36.47 236.86Z" fill="#F1F1F5" fill-opacity="1.000000" fill-rule="evenodd"/>
				<path d="M-36.42 53.86L-35.23 53.86L-35.28 236.86L-36.47 236.86L-36.42 53.86Z" stroke="#979797" stroke-opacity="0" stroke-width="0.000000"/>
			</g>
			<rect width="29.280001" height="206.000000" transform="translate(-104.747559 53.849609) rotate(0.015818)" fill="#FFFFFF" fill-opacity="0"/>
			<g clip-path="url(#clip1_2588)">
				<path d="M-81.74 240.34Q-81.07 239.46 -81.07 238.01L-81.07 237.91Q-81.07 236.4 -81.73 235.52Q-82.02 235.15 -82.39 234.93Q-82.89 234.65 -83.54 234.65Q-84.27 234.65 -84.8 234.97Q-85.11 235.16 -85.36 235.46L-85.35 232.11L-86.44 232.11L-86.44 241.11L-85.44 241.11L-85.39 240.37Q-85.16 240.68 -84.85 240.87Q-84.31 241.22 -83.53 241.22Q-82.95 241.22 -82.49 240.98Q-82.06 240.77 -81.74 240.34ZM-98.18 237.34L-94.6 237.34L-94.6 236.42L-98.18 236.42L-98.18 233.5L-94.02 233.5L-94.02 232.57L-99.31 232.57L-99.31 241.1L-98.18 241.1L-98.18 237.34ZM-91.73 240.86Q-91.1 241.22 -90.25 241.22Q-89.3 241.22 -88.64 240.79Q-88.18 240.49 -87.86 240L-88.52 239.48Q-88.79 239.82 -89.13 240.04Q-89.17 240.08 -89.22 240.1Q-89.62 240.34 -90.19 240.34Q-90.64 240.34 -91 240.16Q-91.29 240.02 -91.53 239.76Q-91.6 239.68 -91.67 239.59Q-92.05 239.05 -92.07 238.25L-87.78 238.25L-87.78 237.8Q-87.78 236.28 -88.46 235.46Q-88.67 235.22 -88.92 235.05Q-89.51 234.65 -90.39 234.65Q-90.72 234.65 -91.03 234.73Q-91.43 234.83 -91.79 235.07Q-91.97 235.18 -92.12 235.32Q-92.54 235.69 -92.8 236.23Q-93.16 236.97 -93.16 237.91L-93.16 238.11Q-93.16 239.28 -92.61 240.06Q-92.49 240.23 -92.35 240.38Q-92.07 240.67 -91.73 240.86ZM-91 235.66Q-90.72 235.54 -90.39 235.54Q-89.93 235.54 -89.6 235.74Q-89.44 235.84 -89.31 235.99Q-88.91 236.45 -88.86 237.27L-88.86 237.36L-92.04 237.35Q-91.93 236.49 -91.49 236.02Q-91.27 235.78 -91 235.66ZM-82.58 236.17Q-82.16 236.78 -82.16 237.88Q-82.16 239.1 -82.59 239.7Q-82.78 239.97 -83.04 240.12Q-83.37 240.3 -83.8 240.3Q-84.28 240.3 -84.64 240.1Q-85.08 239.85 -85.36 239.31L-85.36 236.57Q-85.11 236.04 -84.7 235.8Q-84.33 235.57 -83.81 235.57Q-83.34 235.57 -82.99 235.78Q-82.76 235.93 -82.58 236.17Z" fill="#92929D" fill-opacity="1.000000" fill-rule="evenodd"/>
				<path d="M-88.93 236.85L-88.88 53.85L-87.69 53.85L-87.74 236.85L-88.93 236.85Z" fill="#F1F1F5" fill-opacity="1.000000" fill-rule="evenodd"/>
				<path d="M-88.88 53.85L-87.69 53.85L-87.74 236.85L-88.93 236.85L-88.88 53.85Z" stroke="#979797" stroke-opacity="0" stroke-width="0.000000"/>
			</g>
			<rect width="29.280001" height="206.000000" transform="translate(-158.427490 53.834961) rotate(0.015818)" fill="#FFFFFF" fill-opacity="0"/>
			<g clip-path="url(#clip1_2591)">
				<path d="M-148.37 232.56L-149.5 232.56L-149.5 238.62Q-149.5 239.33 -149.86 239.76Q-149.9 239.81 -149.94 239.85Q-150.06 239.98 -150.22 240.07Q-150.57 240.29 -151.06 240.29Q-151.77 240.29 -152.16 239.94Q-152.19 239.91 -152.23 239.88Q-152.27 239.83 -152.31 239.78Q-152.63 239.38 -152.63 238.73L-153.75 238.73Q-153.75 239.66 -153.31 240.26Q-153.19 240.42 -153.04 240.55Q-153.02 240.58 -153 240.6Q-152.29 241.21 -151.06 241.21Q-150.04 241.21 -149.36 240.72Q-149.23 240.63 -149.1 240.51Q-148.95 240.37 -148.83 240.2Q-148.37 239.57 -148.37 238.6L-148.37 232.56ZM-142.77 240.42Q-142.72 240.9 -142.62 241.09L-141.49 241.09L-141.49 241Q-141.71 240.48 -141.71 239.61L-141.71 236.69Q-141.72 235.99 -142.06 235.51Q-142.18 235.33 -142.35 235.18Q-142.36 235.18 -142.36 235.17Q-142.98 234.63 -144.07 234.63Q-144.76 234.63 -145.33 234.89Q-145.33 234.89 -145.34 234.89Q-145.91 235.15 -146.25 235.58Q-146.25 235.59 -146.25 235.59Q-146.54 235.97 -146.58 236.38Q-146.59 236.44 -146.59 236.51L-145.5 236.51Q-145.5 236.38 -145.46 236.27Q-145.38 236 -145.11 235.8Q-145.07 235.77 -145.02 235.74Q-144.65 235.51 -144.13 235.51Q-143.48 235.51 -143.14 235.83Q-143.14 235.84 -143.13 235.84Q-143.06 235.92 -143 236Q-142.79 236.31 -142.79 236.75L-142.79 237.25L-143.85 237.25Q-145.21 237.25 -145.97 237.79Q-146.29 238.03 -146.47 238.34Q-146.72 238.76 -146.72 239.33Q-146.72 239.76 -146.55 240.11Q-146.4 240.42 -146.12 240.68Q-146 240.78 -145.86 240.87Q-145.33 241.21 -144.58 241.21Q-144.12 241.21 -143.72 241.06Q-143.2 240.86 -142.77 240.42ZM-138.86 235.55L-138.9 234.75L-139.92 234.75L-139.92 241.09L-138.84 241.09L-138.84 236.57Q-138.69 236.27 -138.46 236.04Q-138.35 235.93 -138.22 235.84Q-138.1 235.75 -137.98 235.7Q-137.67 235.55 -137.29 235.55Q-136.65 235.56 -136.34 235.88Q-136.34 235.88 -136.33 235.88Q-136.03 236.21 -136.02 236.9L-136.02 241.09L-134.94 241.09L-134.94 236.9Q-134.95 235.63 -135.58 235.07Q-136.08 234.64 -136.96 234.64Q-137.55 234.63 -138.03 234.87Q-138.5 235.1 -138.86 235.55ZM-144.05 240.23Q-144.23 240.26 -144.42 240.26Q-144.88 240.26 -145.2 240.05Q-145.25 240.02 -145.29 239.98Q-145.4 239.89 -145.47 239.78Q-145.63 239.53 -145.63 239.18Q-145.63 238.88 -145.5 238.66Q-145.13 238.01 -143.64 238.01L-142.79 238.01L-142.79 239.32Q-142.83 239.39 -142.87 239.45Q-143.08 239.78 -143.45 240Q-143.74 240.17 -144.05 240.23Z" fill="#92929D" fill-opacity="1.000000" fill-rule="evenodd"/>
				<path d="M-143.83 236.83L-143.78 53.83L-142.59 53.83L-142.64 236.83L-143.83 236.83Z" fill="#F1F1F5" fill-opacity="1.000000" fill-rule="evenodd"/>
				<path d="M-143.78 53.83L-142.59 53.83L-142.64 236.83L-143.83 236.83L-143.78 53.83Z" stroke="#979797" stroke-opacity="0" stroke-width="0.000000"/>
			</g>
			<g filter="url(#filter_1_2595_dd)">
				<path d="M199.06 49.93L247.06 49.94C253.69 49.94 259.06 55.32 259.06 61.95L259.05 75.94C259.05 82.57 253.68 87.94 247.05 87.94L187.05 87.93L187.06 61.93C187.06 55.3 192.43 49.93 199.06 49.93Z" fill="#FFFFFF" fill-opacity="1.000000" fill-rule="nonzero"/>
			</g>
			<path d="M225.36 71.06C225.35 72.72 223.78 73.93 221.58 73.93C219.35 73.93 217.78 72.72 217.79 71.06C217.78 69.79 218.71 68.73 219.92 68.53L219.92 68.46C218.87 68.23 218.16 67.3 218.17 66.2C218.16 64.63 219.6 63.47 221.58 63.47C223.54 63.47 224.98 64.64 224.98 66.2C224.98 67.31 224.26 68.23 223.23 68.46L223.23 68.53C224.42 68.73 225.36 69.79 225.36 71.06ZM233.98 73.8L227 73.79L227 72.46L230.54 69C231.54 67.98 232.06 67.37 232.06 66.52C232.06 65.56 231.34 64.97 230.37 64.97C229.36 64.97 228.7 65.62 228.7 66.66L226.94 66.66C226.94 64.73 228.37 63.47 230.39 63.47C232.44 63.47 233.83 64.72 233.83 66.43C233.83 67.57 233.28 68.5 231.3 70.4L229.54 72.18L229.54 72.25L233.98 72.25L233.98 73.8ZM243.39 68.72C243.39 72.06 241.92 74 239.46 73.99C237.01 73.99 235.54 72.05 235.54 68.71C235.55 65.39 237.02 63.47 239.47 63.47C241.91 63.48 243.39 65.4 243.39 68.72ZM219.97 66.37C219.96 67.26 220.63 67.87 221.58 67.87C222.51 67.87 223.18 67.26 223.19 66.38C223.18 65.5 222.53 64.91 221.58 64.91C220.61 64.91 219.96 65.5 219.97 66.37ZM237.41 68.71C237.4 71.16 238.2 72.43 239.47 72.43C240.74 72.43 241.53 71.16 241.53 68.71C241.52 66.29 240.74 65.01 239.47 65.01C238.2 65.01 237.41 66.29 237.41 68.71ZM219.69 70.93C219.68 71.87 220.42 72.51 221.58 72.51C222.72 72.51 223.45 71.87 223.47 70.94C223.46 69.96 222.66 69.27 221.58 69.27C220.48 69.27 219.68 69.96 219.69 70.93Z" fill="#1D1E25" fill-opacity="1.000000" fill-rule="evenodd"/>
			<rect x="198.059570" y="64.075928" rx="2.000000" width="10.000000" height="10.000000" transform="rotate(0.0158183 198.059570 64.075928)" fill="#2280FF" fill-opacity="1.000000"/>
		</g>
		<g mask="url(#mask1_2555)">
			<path d="M-9.97 147.76C-5.47 149.61 5.16 154.75 11.72 160.57C19.91 167.84 46.42 175.81 62.33 158.51C78.24 141.21 85.47 134.98 97.04 134.98C108.61 134.98 116.32 132.56 129.34 114.56C142.36 96.57 146.61 87.87 162.61 87.92C178.08 87.96 185.9 98.66 189.6 104.54L198.27 118.05C201.8 123.7 211.31 133.28 225.22 134.3C239.13 135.33 249.83 130.15 260.93 121.52C271.27 113.49 289.37 104.92 304.79 121.54C317.13 134.83 323.43 139.54 325.03 140.24" stroke="#2280FF" stroke-opacity="1.000000" stroke-width="3.000000" stroke-linecap="round"/>
			<path d="M-33.97 154.49C-28.76 155.83 -16.44 159.58 -8.85 163.82C0.64 169.12 31.34 174.93 49.77 162.33C68.2 149.72 76.57 145.19 89.97 145.19C103.37 145.19 112.3 143.43 127.38 130.32C142.45 117.22 147.37 110.88 165.9 110.92C183.82 110.95 192.89 118.74 197.16 123.03L207.21 132.87C211.3 136.99 222.31 143.97 238.42 144.71C254.54 145.46 266.93 141.69 279.79 135.41C291.76 129.56 312.73 123.32 330.59 135.42C344.88 145.11 352.17 148.54 354.03 149.05" stroke="#FF5555" stroke-opacity="1.000000" stroke-width="3.000000" stroke-linecap="round"/>
		</g>
		<rect x="-1.046387" y="49.878418" width="59.779999" height="203.000000" transform="rotate(0.0158183 -1.046387 49.878418)" fill="#FFFFFF" fill-opacity="1.000000"/>
		<rect x="-1.046387" y="49.878418" width="59.779999" height="203.000000" transform="rotate(0.0158183 -1.046387 49.878418)" stroke="#979797" stroke-opacity="0" stroke-width="0.000000"/>
		<rect width="17.080000" height="24.000000" transform="translate(9.933105 51.881348) rotate(0.015818)" fill="#FFFFFF" fill-opacity="0"/>
		<g clip-path="url(#clip1_2603)">
			<path d="M13.45 59.15L14.51 59.15L14.51 67.88L13.45 67.88L13.45 60.26L13.4 60.26L11.27 61.67L11.27 60.6L13.45 59.15ZM18.12 67.88L17.11 67.88L17.12 59.15L18.12 59.15L18.12 64.25L18.24 64.25L21.11 61.33L22.35 61.33L19.58 64.13L22.55 67.88L21.27 67.88L18.82 64.78L18.12 65.43L18.12 67.88Z" fill="#808D9E" fill-opacity="1.000000" fill-rule="evenodd"/>
		</g>
		<rect width="10.980000" height="24.000000" transform="translate(17.206055 221.883301) rotate(0.015818)" fill="#FFFFFF" fill-opacity="0"/>
		<g clip-path="url(#clip1_2605)">
			<path d="M24.59 233.52C24.59 236.37 23.48 238 21.56 238C19.63 238 18.52 236.37 18.52 233.52C18.52 230.69 19.65 229.03 21.56 229.03C23.47 229.03 24.59 230.69 24.59 233.52ZM19.55 233.52C19.54 235.79 20.29 237.06 21.56 237.06C22.83 237.06 23.57 235.79 23.57 233.52C23.57 231.25 22.82 229.96 21.56 229.96C20.3 229.95 19.55 231.25 19.55 233.52Z" fill="#808D9E" fill-opacity="1.000000" fill-rule="evenodd"/>
		</g>
		<rect width="29.280001" height="24.000000" transform="translate(-1.084473 187.878418) rotate(0.015818)" fill="#FFFFFF" fill-opacity="0"/>
		<g clip-path="url(#clip1_2607)">
			<path d="M7.15 203.88L1.64 203.87L1.64 203.11L4.52 199.96C5.53 198.85 6.01 198.25 6.01 197.45C6.01 196.53 5.28 195.95 4.34 195.95C3.33 195.95 2.68 196.61 2.68 197.6L1.68 197.6C1.68 196.07 2.84 195.03 4.37 195.03C5.9 195.03 6.99 196.1 6.99 197.45C6.99 198.42 6.55 199.17 5.05 200.77L3.09 202.87L3.09 202.94L7.15 202.94L7.15 203.88ZM14.87 199.52C14.87 202.37 13.76 204 11.83 204C9.91 204 8.8 202.36 8.8 199.51C8.8 196.68 9.93 195.03 11.84 195.03C13.75 195.03 14.87 196.69 14.87 199.52ZM22.46 199.52C22.45 202.37 21.34 204 19.42 204C17.49 204 16.38 202.37 16.39 199.52C16.39 196.69 17.51 195.03 19.42 195.03C21.33 195.03 22.46 196.69 22.46 199.52ZM9.82 199.51C9.82 201.79 10.56 203.06 11.83 203.06C13.1 203.06 13.85 201.79 13.85 199.52C13.85 197.25 13.1 195.95 11.84 195.95C10.57 195.95 9.82 197.25 9.82 199.51ZM17.41 199.52C17.41 201.79 18.15 203.06 19.42 203.06C20.69 203.06 21.43 201.79 21.43 199.52C21.43 197.25 20.68 195.96 19.42 195.95C18.16 195.95 17.41 197.25 17.41 199.52Z" fill="#808D9E" fill-opacity="1.000000" fill-rule="evenodd"/>
		</g>
		<rect width="29.280001" height="24.000000" transform="translate(-1.074951 153.878418) rotate(0.015818)" fill="#FFFFFF" fill-opacity="0"/>
		<g clip-path="url(#clip1_2609)">
			<path d="M15.32 165.52C15.32 168.37 14.21 170 12.29 170C10.36 170 9.25 168.37 9.25 165.51C9.25 162.68 10.38 161.03 12.29 161.03C14.2 161.03 15.32 162.69 15.32 165.52ZM22.91 165.52C22.91 168.37 21.8 170 19.87 170C17.95 170 16.84 168.37 16.84 165.52C16.84 162.69 17.96 161.03 19.87 161.03C21.78 161.03 22.91 162.69 22.91 165.52ZM5.55 168.09L1.45 168.08L1.45 167.21L5.28 161.15L6.56 161.15L6.56 167.15L7.75 167.15L7.75 168.09L6.56 168.09L6.56 169.88L5.55 169.88L5.55 168.09ZM10.27 165.51C10.27 167.79 11.02 169.06 12.29 169.06C13.55 169.06 14.3 167.79 14.3 165.52C14.3 163.25 13.55 161.95 12.29 161.95C11.03 161.95 10.27 163.25 10.27 165.51ZM17.86 165.52C17.86 167.79 18.6 169.06 19.87 169.06C21.14 169.06 21.88 167.79 21.89 165.52C21.89 163.25 21.14 161.96 19.87 161.95C18.61 161.95 17.86 163.25 17.86 165.52ZM2.59 167.15L5.55 167.15L5.56 162.5L5.48 162.5L2.59 167.08L2.59 167.15Z" fill="#808D9E" fill-opacity="1.000000" fill-rule="evenodd"/>
		</g>
		<rect width="29.280001" height="24.000000" transform="translate(-1.065674 119.878418) rotate(0.015818)" fill="#FFFFFF" fill-opacity="0"/>
		<g clip-path="url(#clip1_2611)">
			<path d="M7.47 133.06C7.47 134.69 6.32 136.02 4.55 136C3.13 135.98 1.52 135.08 1.52 131.85C1.52 128.77 2.73 127.03 4.69 127.03C6.16 127.03 7.19 127.97 7.4 129.33L6.36 129.33C6.17 128.55 5.61 127.97 4.69 127.97C3.34 127.96 2.52 129.2 2.51 131.33L2.58 131.33C3.06 130.6 3.83 130.17 4.73 130.17C6.22 130.17 7.47 131.38 7.47 133.06ZM15.11 131.52C15.11 134.37 14 136 12.07 136C10.15 136 9.04 134.36 9.04 131.51C9.04 128.68 10.17 127.03 12.08 127.03C13.99 127.03 15.11 128.69 15.11 131.52ZM22.7 131.52C22.69 134.37 21.58 136 19.66 136C17.73 136 16.62 134.37 16.63 131.52C16.63 128.69 17.75 127.03 19.66 127.03C21.57 127.03 22.7 128.69 22.7 131.52ZM10.06 131.51C10.06 133.78 10.81 135.06 12.07 135.06C13.34 135.06 14.09 133.79 14.09 131.52C14.09 129.25 13.34 127.95 12.08 127.95C10.81 127.95 10.06 129.25 10.06 131.51ZM17.65 131.52C17.65 133.79 18.39 135.06 19.66 135.06C20.93 135.06 21.67 133.79 21.67 131.52C21.67 129.25 20.92 127.96 19.66 127.95C18.4 127.95 17.65 129.25 17.65 131.52ZM2.67 133.08C2.66 134.12 3.46 135.06 4.56 135.06C5.63 135.06 6.45 134.17 6.45 133.06C6.45 131.98 5.66 131.1 4.59 131.1C3.51 131.1 2.67 132.03 2.67 133.08Z" fill="#808D9E" fill-opacity="1.000000" fill-rule="evenodd"/>
		</g>
		<rect width="29.280001" height="24.000000" transform="translate(-1.056152 85.878418) rotate(0.015818)" fill="#FFFFFF" fill-opacity="0"/>
		<g clip-path="url(#clip1_2613)">
			<path d="M7.43 99.56C7.42 100.98 6.2 102 4.46 102C2.7 102 1.49 100.98 1.5 99.56C1.49 98.45 2.23 97.51 3.19 97.34L3.19 97.29C2.35 97.08 1.81 96.28 1.82 95.35C1.82 94.02 2.93 93.03 4.47 93.03C5.98 93.03 7.1 94.02 7.11 95.35C7.1 96.28 6.56 97.08 5.74 97.29L5.74 97.34C6.68 97.52 7.42 98.45 7.43 99.56ZM15.03 97.52C15.03 100.37 13.92 102 12 102C10.07 102 8.96 100.36 8.96 97.51C8.96 94.68 10.09 93.03 12 93.03C13.91 93.03 15.03 94.69 15.03 97.52ZM22.62 97.52C22.62 100.37 21.51 102 19.58 102C17.66 102 16.55 100.37 16.55 97.52C16.55 94.69 17.68 93.03 19.59 93.03C21.5 93.03 22.62 94.69 22.62 97.52ZM2.85 95.41C2.84 96.32 3.51 96.91 4.47 96.92C5.4 96.92 6.07 96.32 6.08 95.42C6.07 94.53 5.43 93.95 4.47 93.95C3.49 93.95 2.84 94.53 2.85 95.41ZM9.99 97.51C9.99 99.78 10.73 101.06 12 101.06C13.27 101.06 14.01 99.79 14.01 97.52C14.01 95.25 13.26 93.95 12 93.95C10.74 93.95 9.99 95.25 9.99 97.51ZM17.57 97.52C17.57 99.79 18.32 101.06 19.58 101.06C20.85 101.06 21.6 99.79 21.6 97.52C21.6 95.25 20.85 93.95 19.59 93.95C18.32 93.95 17.57 95.25 17.57 97.52ZM2.54 99.5C2.53 100.44 3.27 101.06 4.46 101.06C5.64 101.06 6.38 100.44 6.39 99.51C6.38 98.52 5.57 97.82 4.47 97.82C3.34 97.82 2.53 98.52 2.54 99.5Z" fill="#808D9E" fill-opacity="1.000000" fill-rule="evenodd"/>
		</g>
		<g filter="url(#filter_1_2616_dd)">
			<rect x="171.054199" y="83.925781" rx="7.000000" width="14.000000" height="14.000000" transform="rotate(0.0158183 171.054199 83.925781)" fill="#2280FF" fill-opacity="1.000000"/>
			<rect x="172.053955" y="84.926025" rx="6.000000" width="12.000000" height="12.000000" transform="rotate(0.0158183 172.053955 84.926025)" stroke="#FFFFFF" stroke-opacity="1.000000" stroke-width="2.000000"/>
		</g>
		<rect x="168.543457" y="14.925293" rx="2.000000" width="12.200000" height="10.000000" transform="rotate(0.0158183 168.543457 14.925293)" fill="#FF5555" fill-opacity="1.000000"/>
		<path d="M242.48 15.24C242.48 15.67 242.11 16.03 241.65 16.03C241.19 16.03 240.81 15.67 240.81 15.24C240.81 14.8 241.19 14.44 241.65 14.44C242.11 14.44 242.48 14.8 242.48 15.24ZM195.83 14.61C197.88 14.61 199.55 15.84 199.92 17.93L198.69 17.93C198.39 16.52 197.18 15.76 195.83 15.76C193.98 15.76 192.52 17.19 192.52 19.84C192.52 22.48 193.98 23.91 195.82 23.91C197.18 23.91 198.39 23.16 198.69 21.75L199.92 21.75C199.54 23.83 197.88 25.07 195.82 25.07C193.22 25.07 191.33 23.06 191.33 19.84C191.33 16.61 193.22 14.6 195.83 14.61ZM238.15 17.3L239.78 17.3L239.78 18.3L238.15 18.3L238.15 22.75C238.15 23.75 238.65 23.9 239.16 23.9C239.42 23.9 239.58 23.87 239.68 23.85L239.92 24.9C239.76 24.96 239.48 25.04 239.05 25.04C238.05 25.04 236.97 24.4 236.98 23.07L236.98 18.3L235.82 18.3L235.82 17.3L236.98 17.3L236.98 15.47L238.15 15.48L238.15 17.3ZM245.56 17.31L247.19 17.31L247.19 18.3L245.56 18.3L245.56 22.75C245.56 23.75 246.06 23.91 246.57 23.91C246.83 23.91 246.99 23.87 247.09 23.85L247.33 24.9C247.17 24.96 246.9 25.04 246.46 25.04C245.46 25.04 244.39 24.4 244.39 23.07L244.39 18.3L243.24 18.3L243.24 17.31L244.39 17.31L244.39 15.48L245.56 15.48L245.56 17.31ZM257.41 24.94L256.23 24.94L256.24 17.31L257.37 17.31L257.37 18.46L257.45 18.46C257.73 17.71 258.52 17.19 259.44 17.19C259.61 17.19 259.92 17.2 260.05 17.21L260.05 18.4C259.98 18.38 259.65 18.32 259.34 18.32C258.23 18.32 257.41 19.08 257.41 20.11L257.41 24.94ZM207.81 21.15C207.81 23.52 206.42 25.09 204.35 25.09C202.29 25.09 200.89 23.52 200.89 21.15C200.89 18.76 202.29 17.19 204.36 17.2C206.42 17.2 207.82 18.76 207.81 21.15ZM210.28 24.93L209.1 24.93L209.11 17.3L210.24 17.3L210.24 18.49L210.34 18.49C210.66 17.67 211.39 17.2 212.39 17.2C213.39 17.2 214.06 17.67 214.43 18.49L214.52 18.49C214.91 17.7 215.71 17.2 216.8 17.2C218.16 17.2 219.13 18.03 219.13 19.82L219.13 24.93L217.95 24.93L217.95 19.82C217.95 18.7 217.24 18.25 216.4 18.25C215.33 18.25 214.71 18.98 214.71 19.96L214.71 24.93L213.52 24.93L213.52 19.7C213.52 18.83 212.9 18.25 212.01 18.25C211.09 18.25 210.28 19.04 210.28 20.16L210.28 24.93ZM221.95 27.8L220.77 27.8L220.78 17.3L221.91 17.3L221.91 18.51L222.05 18.51C222.31 18.11 222.77 17.2 224.26 17.2C226.19 17.2 227.52 18.73 227.52 21.14C227.52 23.57 226.18 25.1 224.27 25.1C222.8 25.1 222.31 24.18 222.05 23.76L221.95 23.76L221.95 27.8ZM235.05 23.17C234.69 24.32 233.56 25.1 232.01 25.1C229.8 25.1 228.45 23.53 228.45 21.18C228.45 18.83 229.82 17.2 231.89 17.2C233.48 17.2 235.17 18.18 235.17 21.02L235.17 21.52L229.63 21.52C229.68 23.15 230.63 24.04 232.01 24.04C232.93 24.04 233.62 23.65 233.92 22.85L235.05 23.17ZM254.95 21.17C254.94 23.53 253.55 25.1 251.49 25.1C249.42 25.1 248.02 23.53 248.02 21.17C248.02 18.78 249.42 17.21 251.49 17.21C253.56 17.21 254.95 18.78 254.95 21.17ZM242.22 24.94L241.05 24.94L241.05 17.3L242.22 17.3L242.22 24.94ZM202.07 21.15C202.07 22.68 202.78 24.03 204.35 24.03C205.92 24.03 206.64 22.69 206.64 21.15C206.64 19.62 205.93 18.25 204.36 18.25C202.78 18.25 202.07 19.62 202.07 21.15ZM224.12 18.25C222.69 18.25 221.93 19.41 221.93 21.12C221.93 22.85 222.71 24.04 224.12 24.04C225.59 24.04 226.34 22.75 226.34 21.12C226.34 19.51 225.61 18.25 224.12 18.25ZM231.89 18.26C230.55 18.26 229.71 19.31 229.63 20.5L233.98 20.51C233.98 19.21 233.16 18.26 231.89 18.26ZM249.2 21.17C249.2 22.7 249.91 24.05 251.49 24.05C253.05 24.05 253.77 22.7 253.77 21.17C253.77 19.64 253.06 18.26 251.49 18.26C249.91 18.26 249.2 19.63 249.2 21.17Z" fill="#1D1E25" fill-opacity="1.000000" fill-rule="evenodd"/>
		<rect x="0.183350" y="14.878662" rx="2.000000" width="12.200000" height="10.000000" transform="rotate(0.0158183 0.183350 14.878662)" fill="#2280FF" fill-opacity="1.000000"/>
		<rect x="0.183350" y="14.878662" rx="2.000000" width="12.200000" height="10.000000" transform="rotate(0.0158183 0.183350 14.878662)" stroke="#979797" stroke-opacity="0" stroke-width="0.000000"/>
		<path d="M23.37 24.88L23.37 14.7L24.84 14.7L28.3 23.15L28.42 23.15L31.88 14.7L33.35 14.7L33.35 24.88L32.2 24.88L32.2 17.15L32.1 17.15L28.92 24.88L27.8 24.88L24.62 17.15L24.52 17.15L24.52 24.88L23.37 24.88ZM71.36 23.72C71.1 24.14 70.6 25.05 69.13 25.05C67.22 25.05 65.89 23.52 65.89 21.09C65.89 18.69 67.22 17.16 69.15 17.16C70.64 17.16 71.1 18.07 71.36 18.47L71.46 18.47L71.46 14.71L72.63 14.71L72.63 24.89L71.5 24.89L71.5 23.72L71.36 23.72ZM91.08 17.26L92.71 17.26L92.71 18.26L91.08 18.26L91.08 22.71C91.08 23.71 91.57 23.86 92.09 23.86C92.35 23.86 92.51 23.83 92.61 23.81L92.85 24.86C92.69 24.92 92.41 25 91.97 25C90.98 25 89.9 24.36 89.9 23.03L89.9 18.26L88.75 18.26L88.75 17.26L89.9 17.26L89.9 15.43L91.08 15.43L91.08 17.26ZM55.09 24.89L53.92 24.89L53.92 17.25L55.06 17.25L55.06 18.41L55.14 18.41C55.42 17.65 56.21 17.13 57.13 17.13C57.3 17.13 57.61 17.14 57.74 17.15L57.74 18.35C57.66 18.33 57.34 18.27 57.03 18.27C55.91 18.27 55.1 19.02 55.1 20.06L55.09 24.89ZM47.06 27.75L45.89 27.75L45.89 17.25L47.03 17.25L47.03 18.46L47.17 18.46C47.42 18.06 47.88 17.15 49.37 17.15C51.3 17.15 52.64 18.68 52.64 21.09C52.63 23.52 51.3 25.05 49.39 25.05C47.92 25.05 47.42 24.13 47.17 23.71L47.06 23.71L47.06 27.75ZM64.96 21.11C64.96 23.48 63.56 25.05 61.5 25.05C59.43 25.05 58.04 23.48 58.04 21.11C58.04 18.72 59.43 17.16 61.5 17.16C63.57 17.16 64.96 18.73 64.96 21.11ZM88.17 22.67C87.98 24.02 86.86 25.06 85.17 25.06C83.02 25.06 81.71 23.41 81.71 21.12C81.71 18.79 83.09 17.16 85.15 17.16C86.76 17.16 87.98 18.12 88.18 19.55L87 19.55C86.83 18.85 86.21 18.22 85.18 18.21C83.8 18.21 82.89 19.35 82.89 21.08C82.89 22.85 83.78 24 85.17 24C86.09 24 86.78 23.51 87 22.67L88.17 22.67ZM38.16 26C37.72 27.18 36.97 27.75 35.91 27.75C35.52 27.75 35.18 27.67 35.06 27.61L35.36 26.58C36.21 26.79 36.74 26.69 37.17 25.52L37.39 24.93L34.57 17.25L35.84 17.25L37.94 23.33L38.02 23.33L40.13 17.25L41.4 17.25L38.16 26ZM77.28 23.86C78.16 23.86 79.25 23.2 79.25 21.77L79.25 17.26L80.42 17.26L80.42 24.9L79.25 24.9L79.25 23.6L79.17 23.6C78.81 24.38 78.06 24.99 76.9 24.99C75.47 24.99 74.44 24.06 74.44 22.11L74.44 17.26L75.61 17.26L75.61 22.03C75.61 23.14 76.31 23.86 77.28 23.86ZM49.24 18.21C47.8 18.2 47.05 19.36 47.05 21.07C47.05 22.8 47.82 23.99 49.23 23.99C50.7 23.99 51.46 22.7 51.46 21.07C51.46 19.46 50.73 18.21 49.24 18.21ZM59.21 21.11C59.21 22.64 59.93 23.99 61.5 24C63.07 24 63.78 22.65 63.78 21.11C63.79 19.58 63.07 18.21 61.5 18.21C59.93 18.21 59.21 19.58 59.21 21.11ZM67.06 21.07C67.06 22.7 67.82 24 69.29 24C70.7 24 71.48 22.81 71.48 21.08C71.48 19.37 70.72 18.21 69.29 18.21C67.8 18.21 67.06 19.46 67.06 21.07Z" fill="#1D1E25" fill-opacity="1.000000" fill-rule="evenodd"/>
	</g>
</svg>
