<svg width="113" height="28" viewBox="0 0 113 28" fill="none" xmlns="http://www.w3.org/2000/svg">
<g clip-path="url(#clip0_1_2727)">
<path d="M40.1927 10.6302V12.1179H40.2386C40.778 11.3214 41.6736 10.3834 43.6588 10.3834C45.2032 10.3834 46.3879 11.1634 46.8956 12.3417H46.9415C47.3752 11.746 47.8723 11.2951 48.4294 10.9758C49.0888 10.5973 49.8222 10.3801 50.746 10.3801C52.8369 10.3801 54.6881 11.7295 54.6881 15.1327V21.5868H51.5006V15.5836C51.5006 13.859 50.8729 12.8617 49.5683 12.8617C48.6128 12.8617 47.9182 13.4607 47.6537 14.198C47.562 14.4514 47.5197 14.797 47.5197 15.0866V21.5901H44.3322V15.34C44.3322 13.8754 43.7293 12.8584 42.4423 12.8584C41.4127 12.8584 40.7675 13.6154 40.503 14.2638C40.3902 14.5403 40.3549 14.8595 40.3549 15.159V21.5868H37.1639V10.6302H40.1927ZM71.1403 10.6302V12.6972H71.2285C71.8138 11.1174 73.203 10.3834 74.423 10.3834C74.7298 10.3834 74.899 10.4064 75.1458 10.4525V13.3225C74.8532 13.283 74.5817 13.2435 74.2009 13.2435C72.8187 13.2435 71.8561 13.9939 71.6128 15.1689C71.5599 15.4124 71.5423 15.6757 71.5423 15.9785V21.5901H68.2702V10.6302H71.1403ZM79.5886 7V10.4492H82.3529V13.2402H79.5886V17.3576C79.5886 18.6905 79.9517 19.3356 81.0307 19.3356C81.5384 19.3356 81.9122 19.2764 82.2366 19.2007L82.2789 21.5144C81.8452 21.6658 80.9214 21.8304 79.9835 21.8304C78.8798 21.8304 77.9596 21.4716 77.3989 20.9154C76.7572 20.2802 76.461 19.2402 76.461 17.7591V7H79.5886ZM34.9425 21.5868H31.7691V7H34.9425V21.5868ZM26.4802 17.6735C26.4802 17.8743 26.4625 18.0849 26.4026 18.2659C26.1558 19.0262 25.3131 19.668 24.2623 19.668C23.3843 19.668 22.6862 19.204 22.6862 18.2199C22.6862 16.7158 24.4633 16.2978 26.4837 16.3077V17.6735H26.4802ZM29.65 15.0504C29.65 12.5655 28.5147 10.3834 24.6749 10.3834C22.7038 10.3834 21.1383 10.9001 20.285 11.3609L20.9091 13.3554C21.6883 12.8946 22.933 12.5161 24.1107 12.5161C26.0606 12.5128 26.3779 13.5463 26.3779 14.2078V14.3658C22.1291 14.3592 19.4458 15.7317 19.4458 18.5293C19.4458 20.2374 20.8104 21.837 23.1869 21.837C24.6502 21.837 25.8702 21.2939 26.6036 20.4217H26.6741C26.6741 20.4217 27.1607 22.3142 29.8334 21.5901C29.6923 20.8002 29.6465 19.9609 29.6465 18.9505V15.0504H29.65ZM3.50483 7C3.83275 8.5436 4.76361 13.0263 4.76361 13.0263C5.15499 14.8694 5.51464 16.8013 5.78614 18.3285H5.83551C6.09996 16.7059 6.51602 15.1689 6.9603 13.2665L8.52936 7H12.0025L13.4693 13.4278C13.8536 15.215 14.1604 16.594 14.4037 18.2561H14.4495C14.7139 16.5775 15.0595 15.1426 15.4368 13.306L16.8472 7H20.1792L16.0503 21.5868C13.4199 22.1233 12.4115 21.1359 12.0518 19.5693C11.6922 17.9994 10.987 15.0142 10.987 15.0142C10.6238 13.3784 10.3417 12.2265 10.1443 10.548H10.0949C9.81282 12.21 9.51664 13.3752 9.07942 15.0109L7.34816 21.5901C4.66135 22.0904 3.73049 21.3499 3.2157 19.3389C2.77143 17.6176 0 7.00329 0 7.00329H3.50483V7ZM62.9812 17.6735C62.9812 17.8743 62.9635 18.0849 62.9036 18.2659C62.6568 19.0262 61.8141 19.668 60.7633 19.668C59.8854 19.668 59.1872 19.204 59.1872 18.2199C59.1872 16.7158 60.9643 16.2978 62.9847 16.3077V17.6735H62.9812ZM66.151 15.0504C66.151 12.5655 65.0157 10.3834 61.1759 10.3834C59.2048 10.3834 57.6393 10.9001 56.786 11.3609L57.4101 13.3554C58.1894 12.8946 59.434 12.5161 60.6117 12.5161C62.5581 12.5128 62.8789 13.5463 62.8789 14.2078V14.3658C58.6336 14.3592 55.9504 15.7317 55.9504 18.5293C55.9504 20.2374 57.3184 21.837 59.6914 21.837C61.1512 21.837 62.3747 21.2939 63.1046 20.4217H63.1786C63.1786 20.4217 63.6652 22.3142 66.3379 21.5901C66.1969 20.8002 66.151 19.9609 66.151 18.9505V15.0504Z" fill="#041E42"/>
<path d="M95.2461 16.1447C95.5589 16.6774 95.5378 17.2719 95.2039 17.5434L89.4328 21.4991C88.8318 21.8394 87.9321 21.427 87.4225 20.5643C86.9093 19.6983 87.0007 18.7325 87.6017 18.3923L93.9914 15.4848C94.392 15.3336 94.9333 15.612 95.2461 16.1447ZM102.841 16.1447C103.158 15.612 103.695 15.337 104.096 15.4814L110.489 18.3889C111.09 18.7291 111.178 19.6948 110.668 20.5609C110.155 21.4235 109.252 21.8325 108.655 21.4957L102.883 17.54C102.553 17.2719 102.528 16.6739 102.841 16.1447ZM99.0419 18.2892C99.671 18.2892 100.188 18.6054 100.258 19.0212L100.88 25.8879C100.88 26.5684 100.068 27.1251 99.0454 27.1251C98.0262 27.1251 97.2108 26.5684 97.2108 25.8879L97.8294 19.0212C97.8997 18.6054 98.4163 18.2892 99.0419 18.2892ZM102.883 10.4603L108.655 6.5011C109.252 6.16086 110.155 6.56984 110.668 7.4359C111.178 8.30197 111.09 9.2677 110.489 9.60794L104.096 12.5189C103.695 12.6632 103.154 12.3883 102.841 11.8556C102.528 11.3229 102.553 10.7283 102.883 10.4603ZM93.9914 12.5189L87.6017 9.60794C87.0042 9.2677 86.9128 8.30197 87.4225 7.4359C87.9321 6.56984 88.8353 6.16086 89.4328 6.5011L95.2039 10.4603C95.5378 10.7249 95.5589 11.3229 95.2461 11.8556C94.9333 12.3883 94.392 12.6632 93.9914 12.5189ZM97.8294 8.97901L97.2108 2.11236C97.2108 1.43188 98.0227 0.875122 99.0454 0.875122C100.068 0.875122 100.88 1.43188 100.88 2.11236L100.258 8.97901C100.188 9.39142 99.671 9.71104 99.0419 9.71104C98.4163 9.71104 97.8997 9.39142 97.8294 8.97901ZM112.229 21.4716V21.2998H112.387C112.44 21.2998 112.475 21.3342 112.475 21.3857C112.475 21.4338 112.44 21.4716 112.387 21.4716H112.229ZM112.099 21.7844C112.099 21.8016 112.113 21.8188 112.134 21.8188H112.201C112.218 21.8188 112.236 21.8016 112.236 21.7844V21.5885H112.345L112.433 21.7947C112.44 21.8084 112.45 21.8188 112.464 21.8188H112.545C112.57 21.8188 112.587 21.7947 112.577 21.7706C112.545 21.7088 112.514 21.6435 112.482 21.5782C112.535 21.561 112.616 21.5095 112.616 21.3857C112.616 21.2551 112.507 21.1795 112.398 21.1795H112.134C112.116 21.1795 112.099 21.1967 112.099 21.2139V21.7844ZM111.814 21.4991C111.814 21.2208 112.046 20.9939 112.331 20.9939C112.616 20.9939 112.847 21.2173 112.847 21.4991C112.847 21.7775 112.619 22.0043 112.331 22.0043C112.043 22.0043 111.814 21.7775 111.814 21.4991ZM111.691 21.4991C111.691 21.8428 111.976 22.1246 112.331 22.1246C112.682 22.1246 112.971 21.8428 112.971 21.4991C112.971 21.1555 112.682 20.8736 112.331 20.8736C111.976 20.8736 111.691 21.1555 111.691 21.4991Z" fill="#FFC124"/>
</g>
<defs>
<clipPath id="clip0_1_2727">
<rect width="112.941" height="26.25" fill="white" transform="translate(0.0292969 0.875122)"/>
</clipPath>
</defs>
</svg>
